<svg width="24px" height="24px" viewBox="0 0 24 24" fill="none" xmlns="http://www.w3.org/2000/svg">
    <path fill-rule="evenodd" clip-rule="evenodd" d="M5.717 3.541L5.62888 3.57179L5.702 3.545L5.68094 3.5526L5.62888 3.57179L5.61027 3.57945L5.57042 3.59732C5.55256 3.6058 5.53506 3.61476 5.51784 3.6243C5.49629 3.63615 5.47517 3.64879 5.45465 3.662C5.44345 3.66928 5.43242 3.67676 5.41544 3.68895L5.33739 3.75117L5.33429 3.754C5.32012 3.76663 5.30628 3.77968 5.29316 3.79279C5.25329 3.83268 5.21709 3.87568 5.18444 3.92158C5.17676 3.93242 5.16928 3.94345 5.16222 3.95451C5.14879 3.97517 5.13615 3.99629 5.12417 4.01792C5.10471 4.05337 5.08719 4.09038 5.07179 4.12887L2.07179 11.6289L2.03472 11.7397C2.01128 11.8261 2 11.9135 2 12C2 14.2091 3.79086 16 6 16C8.19669 16 9.97981 14.2293 9.99983 12.0373C10.0049 11.9017 9.98237 11.7629 9.92874 11.6289L7.477 5.5H11V18.5H4.88889L4.78523 18.5067C4.34315 18.5645 4 18.9872 4 19.5C4 20.0523 4.39797 20.5 4.88889 20.5H19.1111L19.2148 20.4933C19.6569 20.4355 20 20.0128 20 19.5C20 18.9477 19.602 18.5 19.1111 18.5H13V5.5H16.522L14.0718 11.6289L14.0347 11.7397C14.0113 11.8261 14 11.9136 14 12C14 14.2091 15.7909 16 18 16C20.1967 16 21.9798 14.2293 21.9998 12.0373C22.0049 11.9018 21.9824 11.7629 21.9287 11.6289L18.9613 4.20578C18.8502 3.79723 18.5139 3.50027 18.1162 3.50027H6.06679L6.05084 3.50127C6.03408 3.50042 6.01735 3.5 6.0009 3.5L5.97429 3.50034L5.94753 3.50142C5.92529 3.5026 5.90314 3.50454 5.88162 3.50708C5.86593 3.50896 5.85024 3.51123 5.83401 3.51404C5.81719 3.51689 5.80046 3.52017 5.78454 3.52366L5.717 3.541ZM19.9231 12L18 7.192L16.0774 12H19.9231ZM7.92313 12L6 7.192L4.07736 12H7.92313Z" fill="#0A50E2"></path>
</svg>