<svg width="24px" height="24px" viewBox="0 0 24 24" version="1.1" xmlns="http://www.w3.org/2000/svg" xmlns:xlink="http://www.w3.org/1999/xlink">
    <title>Icons/24/Gaming</title>
    <g id="Icons/24/Gaming__Jd15j13U" stroke="none" stroke-width="1" fill="none" fill-rule="evenodd">
        <path d="M19,5 C20.6568542,5 22,6.30813292 22,7.92179665 L22,17.0782033 C22,18.6918671 20.6568542,20 19,20 C18.4780081,20 17.9650494,19.8673508 17.5118108,19.6151599 L14,17.6611188 L9.95866947,17.6611188 L6.49400464,19.5989384 C5.05722016,20.4025454 3.22358755,19.9196159 2.39847157,18.5202853 C2.13738724,18.0775071 2,17.5758237 2,17.065226 L2,7.92179665 C2,6.30813292 3.34314575,5 5,5 L19,5 Z M19,6.94786443 L5,6.94786443 C4.48716416,6.94786443 4.06449284,7.32384141 4.00672773,7.80821558 L4,7.92179665 L4,17.065226 C4,17.2354252 4.04579575,17.402653 4.13282386,17.5502458 C4.3882169,17.9833719 4.93347271,18.1531107 5.39352007,17.9606783 L5.49800155,17.9097968 L8.96266638,15.9719773 C9.21523823,15.8307115 9.49581094,15.74522 9.78458168,15.7206469 L9.95866947,15.7132544 L14,15.7132544 C14.2899955,15.7132544 14.575809,15.774666 14.8378853,15.8924325 L14.9921261,15.9698144 L18.5039369,17.9238555 C18.6550165,18.0079192 18.8260027,18.0521356 19,18.0521356 C19.5128358,18.0521356 19.9355072,17.6761586 19.9932723,17.1917844 L20,17.0782033 L20,7.92179665 C20,7.42232931 19.6139598,7.01067609 19.1166211,6.95441679 L19,6.94786443 Z M14.5,11.5 C15.3284271,11.5 16,12.1715729 16,13 C16,13.8284271 15.3284271,14.5 14.5,14.5 C13.6715729,14.5 13,13.8284271 13,13 C13,12.1715729 13.6715729,11.5 14.5,11.5 Z M8,8.40876276 C8.55228475,8.40876276 9,8.85647801 9,9.40876276 L9,10.3557628 L10.0260678,10.3566272 C10.5639557,10.3566272 11,10.7926715 11,11.3305594 C11,11.8684473 10.5639557,12.3044916 10.0260678,12.3044916 L9,12.3037628 L9,13.2523561 C9,13.8046408 8.55228475,14.2523561 8,14.2523561 C7.44771525,14.2523561 7,13.8046408 7,13.2523561 L7,12.3037628 L5.97393222,12.3044916 C5.43604431,12.3044916 5,11.8684473 5,11.3305594 C5,10.7926715 5.43604431,10.3566272 5.97393222,10.3566272 L7,10.3557628 L7,9.40876276 C7,8.85647801 7.44771525,8.40876276 8,8.40876276 Z M17.5,8.5 C18.3284271,8.5 19,9.17157288 19,10 C19,10.8284271 18.3284271,11.5 17.5,11.5 C16.6715729,11.5 16,10.8284271 16,10 C16,9.17157288 16.6715729,8.5 17.5,8.5 Z" id="Combined-Shape__Jd15j13U" fill="#0A50E2"></path>
    </g>
</svg>