<svg width="24px" height="24px" viewBox="0 0 24 24" version="1.1" xmlns="http://www.w3.org/2000/svg" xmlns:xlink="http://www.w3.org/1999/xlink">
    <title>Icons/24/Dex</title>
    <g id="Icons/24/Dex__PEtLb3bp" stroke="none" stroke-width="1" fill="none" fill-rule="evenodd">
        <path d="M6.52787952,11.0666866 C6.92017072,10.7616617 7.48740178,10.7893912 7.84788574,11.1498752 L7.84788574,11.1498752 L7.86301919,11.1650086 L7.94072556,11.2522295 C8.25155101,11.6447471 8.22564889,12.2165925 7.86301919,12.5792222 L7.86301919,12.5792222 L5.397,15.045 L17.0459229,15.0459229 C17.5728451,15.0459229 18,15.4730778 18,16 C18,16.5269222 17.5728451,16.9540771 17.0459229,16.9540771 L17.0459229,16.9540771 L5.556,16.954 L8.13572628,19.5333284 L8.21509462,19.6232095 C8.50611189,19.9974855 8.47965577,20.5386677 8.13572628,20.8825972 C7.76313599,21.2551875 7.15904778,21.2551875 6.7864575,20.8825972 L6.7864575,20.8825972 L2.41833822,16.5144779 L2.33896988,16.4245969 C2.04795261,16.0503208 2.07440873,15.5091386 2.41833822,15.1652091 L2.41833822,15.1652091 L2.44299574,15.1406371 L2.44299574,15.1406371 L2.45081061,15.1327368 L6.43367218,11.1498752 Z M17.4719967,3.06671268 L17.5662041,3.14990129 L21.5490656,7.13276285 L21.5568805,7.14066324 L21.581538,7.16523524 C21.9254675,7.50916473 21.9519236,8.0503469 21.6609064,8.42462296 L21.581538,8.51450402 L17.2134709,12.8825711 C16.8408806,13.2551614 16.2367924,13.2551614 15.8642022,12.8825711 C15.5202727,12.5386416 15.4938165,11.9974594 15.7848338,11.6231834 L15.8642022,11.5333023 L18.444,8.954 L6.9540771,8.9540771 C6.42715487,8.9540771 6,8.52692224 6,8 C6,7.47307776 6.42715487,7.0459229 6.9540771,7.0459229 L18.603,7.045 L16.1368701,4.57923525 C15.7742404,4.21660555 15.7483383,3.64476016 16.0591637,3.2522425 L16.1368701,3.16502169 L16.1519905,3.14990129 C16.5124745,2.78941732 17.0797055,2.76168779 17.4719967,3.06671268 Z" id="Combined-Shape__PEtLb3bp" fill="#0A50E2"></path>
    </g>
</svg>