<svg width="24px" height="24px" viewBox="0 0 24 24" version="1.1" xmlns="http://www.w3.org/2000/svg" xmlns:xlink="http://www.w3.org/1999/xlink">
    <title>Icons/24/Latest</title>
    <g id="Icons/24/Latest__raOesD56" stroke="none" stroke-width="1" fill="none" fill-rule="evenodd">
        <path d="M16.3581831,13.4317226 C16.683232,12.4052395 18.1782477,12.5469691 18.3046155,13.6162471 C18.4555322,14.8932489 19.3273427,15.9696485 20.5451355,16.3825531 L20.5451355,16.3825531 L20.6574828,16.4206456 C21.5639787,16.728002 21.5622323,18.0107171 20.6549028,18.315604 L20.6549028,18.315604 L20.5691878,18.3444065 C19.3378154,18.7581804 18.4557905,19.8453803 18.3047433,21.1356018 L18.3047433,21.1356018 L18.2843186,21.2550924 C18.065732,22.216204 16.6678489,22.3083995 16.3573701,21.3186337 L16.3573701,21.3186337 L16.2424397,20.9522506 C15.8617063,19.7385223 14.9513918,18.7627565 13.7669761,18.298802 C12.9326367,17.971978 12.9161765,16.7972335 13.7410314,16.4471613 L13.7410314,16.4471613 L13.9595542,16.354758 C15.0537908,15.8577558 15.8871736,14.9191399 16.2505852,13.77151 L16.2505852,13.77151 Z M9.1196302,2.83931865 C9.32135223,1.73698629 10.9058507,1.7497844 11.0897404,2.85523137 L11.0897404,2.85523137 L11.2360841,3.73497217 C11.6889846,6.45756991 13.7158731,8.65100006 16.3943156,9.31703565 C17.4435058,9.5779328 17.3897956,11.0869834 16.324712,11.2726292 L16.324712,11.2726292 L16.0868611,11.3139131 C13.6119836,11.7926474 11.7000738,13.7772963 11.316962,16.2743696 L11.316962,16.2743696 L11.0917299,17.7424036 C10.919496,18.8650018 9.30625495,18.877073 9.11724137,17.7571779 L9.11724137,17.7571779 L8.90194246,16.4815437 C8.4461716,13.7811264 6.30483053,11.6804564 3.59617085,11.2765461 C2.50819595,11.1143093 2.44150601,9.57025853 3.51144079,9.31481826 L3.51144079,9.31481826 L3.69802794,9.27027174 C6.39582682,8.62618906 8.45889437,6.44998282 8.95816376,3.7216699 L8.95816376,3.7216699 Z M17.205,16.225 L17.1354664,16.3196124 C16.8548347,16.6802765 16.5346209,17.0099618 16.1800098,17.3026191 L16.1800098,17.3026191 L16.102,17.363 L16.2976518,17.525909 C16.6275153,17.8120708 16.9262958,18.1323334 17.1889027,18.4812405 L17.1889027,18.4812405 L17.21,18.511 L17.3377004,18.3328968 C17.566191,18.025191 17.8274283,17.7422813 18.1170808,17.4895069 L18.1170808,17.4895069 L18.26,17.37 L18.1035604,17.2397942 C17.8164052,16.9885007 17.5573987,16.7074311 17.3308068,16.4018523 L17.3308068,16.4018523 L17.205,16.225 Z M10.077,6.574 L9.95074959,6.8135512 C9.20997308,8.15410457 8.13758412,9.28530337 6.83845091,10.0965284 L6.83845091,10.0965284 L6.637,10.217 L6.69634643,10.248774 C8.09323481,11.0225086 9.2426502,12.1851883 9.9998985,13.594867 L9.9998985,13.594867 L10.05,13.693 L10.2015632,13.3983454 C10.9007042,12.1019227 11.9483149,11.0216942 13.2255241,10.2814243 L13.2255241,10.2814243 L13.382,10.193 L13.3200502,10.1558707 C11.9823441,9.31569252 10.8897553,8.13332992 10.1576023,6.73357671 L10.1576023,6.73357671 L10.077,6.574 Z" id="Combined-Shape__raOesD56" fill="#0A50E2"></path>
    </g>
</svg>