<svg width="24px" height="24px" viewBox="0 0 24 24" version="1.1" xmlns="http://www.w3.org/2000/svg" xmlns:xlink="http://www.w3.org/1999/xlink">
    <title>Icons/24/Infra</title>
    <g id="Icons/24/Infra__8x874tqP" stroke="none" stroke-width="1" fill="none" fill-rule="evenodd">
        <path d="M12,2 C16.8601058,2 20.9104254,3.04013207 21.8125166,4.41886354 L21.844312,4.46391182 C21.9231772,4.58786144 21.9754984,4.73035159 21.9932723,4.88337887 L22,5 L22,18 C22,20.0685634 18.9768111,21.442884 14.8143061,21.8635194 L14.2121155,21.9170945 L13.5956445,21.9575262 C13.0763075,21.9856961 12.5433666,22 12,22 C11.4566334,22 10.9236925,21.9856961 10.4043555,21.9575262 L9.78788455,21.9170945 L9.18569394,21.8635194 C5.12229616,21.4528991 2.14460725,20.1334666 2.00511605,18.1465703 L2,18 L2,5 C2,4.80275545 2.05710654,4.61884884 2.15568797,4.46391182 L2.18748343,4.41886354 C3.08957461,3.04013207 7.1398942,2 12,2 Z M20.0014279,13.5325209 C18.7233573,14.1966016 16.9137461,14.6513637 14.8143061,14.8635194 L14.2121155,14.9170945 L13.5956445,14.9575262 C13.0763075,14.9856961 12.5433666,15 12,15 C11.4566334,15 10.9236925,14.9856961 10.4043555,14.9575262 L9.78788455,14.9170945 L9.18569394,14.8635194 C7.08679679,14.6514186 5.27757864,14.1968368 3.99956374,13.5330361 L4,18 C4,18.2268247 4.2769538,18.4828094 4.77286458,18.7340137 L5.03879788,18.8590604 L5.339613,18.9823675 C5.39256616,19.0027213 5.44690561,19.0229634 5.50259778,19.0430741 L5.85271494,19.1620042 L6.23368635,19.2768378 C6.49759403,19.3518185 6.7809972,19.4234397 7.08174783,19.4904443 L7.54561586,19.5873317 L8.03389405,19.6763514 L8.54497138,19.7565606 C8.80594132,19.7943055 9.07485681,19.8283928 9.35081164,19.8582925 L9.9118386,19.9123508 L10.4900261,19.954299 C10.9785518,19.9839479 11.4832748,20 12,20 C12.5167252,20 13.0214482,19.9839479 13.5099739,19.954299 L14.0881614,19.9123508 L14.6491884,19.8582925 C14.9251432,19.8283928 15.1940587,19.7943055 15.4550286,19.7565606 L15.966106,19.6763514 L16.4543841,19.5873317 L16.9182522,19.4904443 C17.2190028,19.4234397 17.502406,19.3518185 17.7663137,19.2768378 L18.1472851,19.1620042 L18.4974022,19.0430741 C18.5530944,19.0229634 18.6074338,19.0027213 18.660387,18.9823675 L18.9612021,18.8590604 L19.2271354,18.7340137 C19.6817203,18.5037431 19.9523205,18.2694556 19.9942637,18.057294 L20,18 L20.0014279,13.5325209 Z M20.0015738,6.79966388 C18.1772129,7.52852307 15.2721387,8 12,8 C8.72845518,8 5.82384158,7.52869419 3.99941959,6.80006069 L4,11 C4,11.2268247 4.2769538,11.4828094 4.77286458,11.7340137 L5.03879788,11.8590604 L5.339613,11.9823675 C5.39256616,12.0027213 5.44690561,12.0229634 5.50259778,12.0430741 L5.85271494,12.1620042 L6.23368635,12.2768378 C6.49759403,12.3518185 6.7809972,12.4234397 7.08174783,12.4904443 L7.54561586,12.5873317 L8.03389405,12.6763514 L8.54497138,12.7565606 C8.80594132,12.7943055 9.07485681,12.8283928 9.35081164,12.8582925 L9.9118386,12.9123508 L10.4900261,12.954299 C10.9785518,12.9839479 11.4832748,13 12,13 C12.5167252,13 13.0214482,12.9839479 13.5099739,12.954299 L14.0881614,12.9123508 L14.6491884,12.8582925 C14.9251432,12.8283928 15.1940587,12.7943055 15.4550286,12.7565606 L15.966106,12.6763514 L16.4543841,12.5873317 L16.9182522,12.4904443 C17.2190028,12.4234397 17.502406,12.3518185 17.7663137,12.2768378 L18.1472851,12.1620042 L18.4974022,12.0430741 C18.5530944,12.0229634 18.6074338,12.0027213 18.660387,11.9823675 L18.9612021,11.8590604 L19.2271354,11.7340137 C19.7230462,11.4828094 20,11.2268247 20,11 Z" id="Combined-Shape__8x874tqP" fill="#0A50E2"></path>
    </g>
</svg>